<svg width="109" height="105" viewBox="0 0 109 105" fill="none" xmlns="http://www.w3.org/2000/svg">
<g filter="url(#filter0_d_15_11)">
<path d="M18.4052 84H4.06996L25.9126 20.7273H43.152L64.9638 84H50.6286L34.7795 35.1861H34.2852L18.4052 84ZM17.5092 59.1296H51.37V69.5721H17.5092V59.1296Z" fill="#063255"/>
<path d="M18.4052 84H4.06996L25.9126 20.7273H43.152L64.9638 84H50.6286L34.7795 35.1861H34.2852L18.4052 84ZM17.5092 59.1296H51.37V69.5721H17.5092V59.1296Z" fill="#063255"/>
<path d="M18.4052 84H4.06996L25.9126 20.7273H43.152L64.9638 84H50.6286L34.7795 35.1861H34.2852L18.4052 84ZM17.5092 59.1296H51.37V69.5721H17.5092V59.1296Z" fill="#063255"/>
<path d="M55.4993 84V20.7273H80.8331C85.4879 20.7273 89.3704 21.4173 92.4805 22.7972C95.5906 24.1772 97.9283 26.0927 99.4936 28.5437C101.059 30.9741 101.842 33.7752 101.842 36.9471C101.842 39.4187 101.347 41.5916 100.359 43.4659C99.37 45.3196 98.0107 46.8437 96.2805 48.0384C94.571 49.2124 92.6143 50.0465 90.4105 50.5408V51.1587C92.8203 51.2617 95.0756 51.9414 97.1765 53.1978C99.2979 54.4542 101.018 56.2152 102.336 58.4808C103.654 60.7259 104.313 63.4034 104.313 66.5135C104.313 69.8707 103.479 72.8675 101.811 75.5039C100.163 78.1197 97.7223 80.1896 94.4886 81.7138C91.255 83.2379 87.2695 84 82.5323 84H55.4993ZM68.8768 73.0632H79.7827C83.5107 73.0632 86.2294 72.3526 87.9389 70.9315C89.6484 69.4897 90.5032 67.5742 90.5032 65.185C90.5032 63.4343 90.081 61.8896 89.2365 60.5508C88.392 59.212 87.1871 58.1616 85.6218 57.3995C84.0771 56.6374 82.2337 56.2564 80.0916 56.2564H68.8768V73.0632ZM68.8768 47.2042H78.794C80.6271 47.2042 82.2543 46.8849 83.6754 46.2464C85.1172 45.5874 86.25 44.6605 87.0739 43.4659C87.9183 42.2713 88.3406 40.8398 88.3406 39.1715C88.3406 36.8853 87.527 35.0419 85.8999 33.6413C84.2933 32.2408 82.0071 31.5405 79.0412 31.5405H68.8768V47.2042Z" fill="#063255"/>
</g>
<defs>
<filter id="filter0_d_15_11" x="0.0700684" y="20.7273" width="108.243" height="71.2727" filterUnits="userSpaceOnUse" color-interpolation-filters="sRGB">
<feFlood flood-opacity="0" result="BackgroundImageFix"/>
<feColorMatrix in="SourceAlpha" type="matrix" values="0 0 0 0 0 0 0 0 0 0 0 0 0 0 0 0 0 0 127 0" result="hardAlpha"/>
<feOffset dy="4"/>
<feGaussianBlur stdDeviation="2"/>
<feComposite in2="hardAlpha" operator="out"/>
<feColorMatrix type="matrix" values="0 0 0 0 0 0 0 0 0 0 0 0 0 0 0 0 0 0 0.25 0"/>
<feBlend mode="normal" in2="BackgroundImageFix" result="effect1_dropShadow_15_11"/>
<feBlend mode="normal" in="SourceGraphic" in2="effect1_dropShadow_15_11" result="shape"/>
</filter>
</defs>
</svg>
