<svg width="88" height="84" viewBox="0 0 88 84" fill="none" xmlns="http://www.w3.org/2000/svg">
<g filter="url(#filter0_d_15_11)">
<path d="M16.011 67H4.64169L21.9652 16.8182H35.6378L52.9368 67H41.5675L28.9975 28.2855H28.6055L16.011 67ZM15.3004 47.2752H42.1555V55.5572H15.3004V47.2752Z" fill="#063255"/>
<path d="M16.011 67H4.64169L21.9652 16.8182H35.6378L52.9368 67H41.5675L28.9975 28.2855H28.6055L16.011 67ZM15.3004 47.2752H42.1555V55.5572H15.3004V47.2752Z" fill="#063255"/>
<path d="M16.011 67H4.64169L21.9652 16.8182H35.6378L52.9368 67H41.5675L28.9975 28.2855H28.6055L16.011 67ZM15.3004 47.2752H42.1555V55.5572H15.3004V47.2752Z" fill="#063255"/>
<path d="M44.3615 67V16.8182H64.4538C68.1456 16.8182 71.2248 17.3654 73.6914 18.4599C76.158 19.5543 78.0121 21.0735 79.2536 23.0174C80.495 24.945 81.1158 27.1665 81.1158 29.6822C81.1158 31.6424 80.7237 33.3658 79.9396 34.8523C79.1555 36.3224 78.0774 37.5312 76.7053 38.4787C75.3494 39.4098 73.7976 40.0714 72.0497 40.4634V40.9535C73.9609 41.0352 75.7496 41.5742 77.4158 42.5707C79.0984 43.5671 80.4624 44.9638 81.5078 46.7607C82.5533 48.5412 83.076 50.6648 83.076 53.1314C83.076 55.794 82.4144 58.1708 81.0913 60.2617C79.7844 62.3363 77.8487 63.978 75.2841 65.1868C72.7195 66.3956 69.5586 67 65.8015 67H44.3615ZM54.9712 58.326H63.6207C66.5774 58.326 68.7337 57.7624 70.0895 56.6353C71.4453 55.4918 72.1232 53.9727 72.1232 52.0778C72.1232 50.6893 71.7884 49.4641 71.1186 48.4023C70.4489 47.3406 69.4933 46.5075 68.2518 45.9031C67.0266 45.2986 65.5646 44.9964 63.8658 44.9964H54.9712V58.326ZM54.9712 37.8171H62.8366C64.2905 37.8171 65.581 37.5639 66.7081 37.0575C67.8516 36.5348 68.75 35.7997 69.4034 34.8523C70.0732 33.9048 70.408 32.7695 70.408 31.4464C70.408 29.6332 69.7628 28.1712 68.4723 27.0604C67.1982 25.9496 65.3849 25.3942 63.0327 25.3942H54.9712V37.8171Z" fill="#063255"/>
</g>
<defs>
<filter id="filter0_d_15_11" x="0.641602" y="16.8182" width="86.4343" height="58.1818" filterUnits="userSpaceOnUse" color-interpolation-filters="sRGB">
<feFlood flood-opacity="0" result="BackgroundImageFix"/>
<feColorMatrix in="SourceAlpha" type="matrix" values="0 0 0 0 0 0 0 0 0 0 0 0 0 0 0 0 0 0 127 0" result="hardAlpha"/>
<feOffset dy="4"/>
<feGaussianBlur stdDeviation="2"/>
<feComposite in2="hardAlpha" operator="out"/>
<feColorMatrix type="matrix" values="0 0 0 0 0 0 0 0 0 0 0 0 0 0 0 0 0 0 0.25 0"/>
<feBlend mode="normal" in2="BackgroundImageFix" result="effect1_dropShadow_15_11"/>
<feBlend mode="normal" in="SourceGraphic" in2="effect1_dropShadow_15_11" result="shape"/>
</filter>
</defs>
</svg>
